# xmcd CD database file
#
# Track frame offsets:
#	150
#	20285
#	36283
#	54253
#	67093
#	85080
#	103075
#	122368
#	148068
#	163943
#
# Disc length: 2434 seconds
#
# Revision: 0
# Processed by: cddbd v1.5.1PL0 Copyright (c) Steve Scherf et al.
# Submitted via: CDex 1.51
#
DISCID=8309800a
DTITLE=SPARTA LOCALS - SUN SUN SUN
DYEAR=2004
DGENRE=ロック (一般)
TTITLE0=ウララ
TTITLE1=トーキョウバレリーナ
TTITLE2=ぼくのポッパー
TTITLE3=UFOバンザイ
TTITLE4=ロマンチックホテル
TTITLE5=ピース(remix)
TTITLE6=THE CLUB
TTITLE7=ALOHA!
TTITLE8=名なしの犬公
TTITLE9=森のメロディー
EXTD=YEAR: 2004
EXTT0=
EXTT1=
EXTT2=
EXTT3=
EXTT4=
EXTT5=
EXTT6=
EXTT7=
EXTT8=
EXTT9=
PLAYORDER=
